# xmcd CD database file
#
# Track frame offsets:
#	150
#	12675
#	23796
#	39235
#	52087
#	65045
#	76574
#	90413
#	104179
#	117700
#	130005
#	141877
#	154598
#	166935
#	182325
#	195968
#	211881
#	223141
#	234515
#	248028
#	262096
#	273225
#	288640
#
# Disc length: 4017 seconds
#
# Revision: 0
# Processed by: cddbd v1.5.2PL0 Copyright (c) Steve Scherf et al.
# Submitted via: cdripper 1,0,39,0213
#
DISCID=4b0faf17
DTITLE=Conway Twitty - Conway Twitty - The Conway Twitty Collection (1994) CD 2
DYEAR=1900
DGENRE=Country
TTITLE0=01 - I Wonder What She'll Think About Me Leaving
TTITLE1=02 - Lead Me On w-Loretta Lynn
TTITLE2=03 - Lost Her Love - On Our Last Date
TTITLE3=04 - I Can't Stop Loving You
TTITLE4=05 - She Needs Someone To Hold Her (When She Cries)
TTITLE5=07 - Louisiana Woman, Mississippi Man w-Loretta Lynn
TTITLE6=06 - Baby's Gone
TTITLE7=08 - You've Never Been This Far Before
TTITLE8=09 - There's A Honky Tonk Angel Who'll Take Me Back In
TTITLE9=11 - As Soon As I Hang Up The Phone w-Loretta Lynn
TTITLE10=10 - I'm Not Through Loving You Yet
TTITLE11=12 - I See The Want To In Your Eyes
TTITLE12=13 - Linda On My Mind
TTITLE13=14 - Touch The Hand
TTITLE14=15 - Feelins' w-Loretta Lynn
TTITLE15=16 - I Just Had You On My Mind Previously Unreleased
TTITLE16=17 - Hello Darlin' In Russian
TTITLE17=18 - This Time I've Hurt Her More Than She Loves Me
TTITLE18=19 - After All The Good Is Gone
TTITLE19=20 - The Games That Daddies Play
TTITLE20=21 - I Can't Believe - She Gives It All To Me
TTITLE21=22 - Play Guitar Play
TTITLE22=23 - No Relief In Sight Previously Unreleased
EXTD=
EXTT0=
EXTT1=
EXTT2=
EXTT3=
EXTT4=
EXTT5=
EXTT6=
EXTT7=
EXTT8=
EXTT9=
EXTT10=
EXTT11=
EXTT12=
EXTT13=
EXTT14=
EXTT15=
EXTT16=
EXTT17=
EXTT18=
EXTT19=
EXTT20=
EXTT21=
EXTT22=
PLAYORDER=
